<?xml version="1.0" encoding="utf-8"?>
<!DOCTYPE svg PUBLIC "-//W3C//DTD SVG 20010904//EN" "http://www.w3.org/TR/2001/REC-SVG-20010904/DTD/svg10.dtd">
<svg xmlns="http://www.w3.org/2000/svg" xml:space="preserve" xmlns:xlink="http://www.w3.org/1999/xlink" width="492" height="492" viewBox="0 0 492 492">
<desc></desc>
<rect width="492" height="492" fill="#ffffff" cx="0" cy="0" />
<defs>
<rect id="p" width="12" height="12" />
</defs>
<g fill="#000000">
<use x="24" y="24" xlink:href="#p" />
<use x="36" y="24" xlink:href="#p" />
<use x="48" y="24" xlink:href="#p" />
<use x="60" y="24" xlink:href="#p" />
<use x="72" y="24" xlink:href="#p" />
<use x="84" y="24" xlink:href="#p" />
<use x="96" y="24" xlink:href="#p" />
<use x="132" y="24" xlink:href="#p" />
<use x="156" y="24" xlink:href="#p" />
<use x="168" y="24" xlink:href="#p" />
<use x="240" y="24" xlink:href="#p" />
<use x="252" y="24" xlink:href="#p" />
<use x="264" y="24" xlink:href="#p" />
<use x="276" y="24" xlink:href="#p" />
<use x="288" y="24" xlink:href="#p" />
<use x="336" y="24" xlink:href="#p" />
<use x="348" y="24" xlink:href="#p" />
<use x="360" y="24" xlink:href="#p" />
<use x="384" y="24" xlink:href="#p" />
<use x="396" y="24" xlink:href="#p" />
<use x="408" y="24" xlink:href="#p" />
<use x="420" y="24" xlink:href="#p" />
<use x="432" y="24" xlink:href="#p" />
<use x="444" y="24" xlink:href="#p" />
<use x="456" y="24" xlink:href="#p" />
<use x="24" y="36" xlink:href="#p" />
<use x="96" y="36" xlink:href="#p" />
<use x="120" y="36" xlink:href="#p" />
<use x="144" y="36" xlink:href="#p" />
<use x="156" y="36" xlink:href="#p" />
<use x="168" y="36" xlink:href="#p" />
<use x="204" y="36" xlink:href="#p" />
<use x="216" y="36" xlink:href="#p" />
<use x="240" y="36" xlink:href="#p" />
<use x="252" y="36" xlink:href="#p" />
<use x="360" y="36" xlink:href="#p" />
<use x="384" y="36" xlink:href="#p" />
<use x="456" y="36" xlink:href="#p" />
<use x="24" y="48" xlink:href="#p" />
<use x="48" y="48" xlink:href="#p" />
<use x="60" y="48" xlink:href="#p" />
<use x="72" y="48" xlink:href="#p" />
<use x="96" y="48" xlink:href="#p" />
<use x="132" y="48" xlink:href="#p" />
<use x="156" y="48" xlink:href="#p" />
<use x="168" y="48" xlink:href="#p" />
<use x="204" y="48" xlink:href="#p" />
<use x="216" y="48" xlink:href="#p" />
<use x="312" y="48" xlink:href="#p" />
<use x="360" y="48" xlink:href="#p" />
<use x="384" y="48" xlink:href="#p" />
<use x="408" y="48" xlink:href="#p" />
<use x="420" y="48" xlink:href="#p" />
<use x="432" y="48" xlink:href="#p" />
<use x="456" y="48" xlink:href="#p" />
<use x="24" y="60" xlink:href="#p" />
<use x="48" y="60" xlink:href="#p" />
<use x="60" y="60" xlink:href="#p" />
<use x="72" y="60" xlink:href="#p" />
<use x="96" y="60" xlink:href="#p" />
<use x="144" y="60" xlink:href="#p" />
<use x="156" y="60" xlink:href="#p" />
<use x="216" y="60" xlink:href="#p" />
<use x="252" y="60" xlink:href="#p" />
<use x="264" y="60" xlink:href="#p" />
<use x="276" y="60" xlink:href="#p" />
<use x="288" y="60" xlink:href="#p" />
<use x="336" y="60" xlink:href="#p" />
<use x="348" y="60" xlink:href="#p" />
<use x="384" y="60" xlink:href="#p" />
<use x="408" y="60" xlink:href="#p" />
<use x="420" y="60" xlink:href="#p" />
<use x="432" y="60" xlink:href="#p" />
<use x="456" y="60" xlink:href="#p" />
<use x="24" y="72" xlink:href="#p" />
<use x="48" y="72" xlink:href="#p" />
<use x="60" y="72" xlink:href="#p" />
<use x="72" y="72" xlink:href="#p" />
<use x="96" y="72" xlink:href="#p" />
<use x="132" y="72" xlink:href="#p" />
<use x="144" y="72" xlink:href="#p" />
<use x="156" y="72" xlink:href="#p" />
<use x="180" y="72" xlink:href="#p" />
<use x="192" y="72" xlink:href="#p" />
<use x="216" y="72" xlink:href="#p" />
<use x="228" y="72" xlink:href="#p" />
<use x="264" y="72" xlink:href="#p" />
<use x="276" y="72" xlink:href="#p" />
<use x="300" y="72" xlink:href="#p" />
<use x="312" y="72" xlink:href="#p" />
<use x="324" y="72" xlink:href="#p" />
<use x="336" y="72" xlink:href="#p" />
<use x="348" y="72" xlink:href="#p" />
<use x="360" y="72" xlink:href="#p" />
<use x="384" y="72" xlink:href="#p" />
<use x="408" y="72" xlink:href="#p" />
<use x="420" y="72" xlink:href="#p" />
<use x="432" y="72" xlink:href="#p" />
<use x="456" y="72" xlink:href="#p" />
<use x="24" y="84" xlink:href="#p" />
<use x="96" y="84" xlink:href="#p" />
<use x="120" y="84" xlink:href="#p" />
<use x="168" y="84" xlink:href="#p" />
<use x="180" y="84" xlink:href="#p" />
<use x="228" y="84" xlink:href="#p" />
<use x="252" y="84" xlink:href="#p" />
<use x="288" y="84" xlink:href="#p" />
<use x="312" y="84" xlink:href="#p" />
<use x="324" y="84" xlink:href="#p" />
<use x="336" y="84" xlink:href="#p" />
<use x="360" y="84" xlink:href="#p" />
<use x="384" y="84" xlink:href="#p" />
<use x="456" y="84" xlink:href="#p" />
<use x="24" y="96" xlink:href="#p" />
<use x="36" y="96" xlink:href="#p" />
<use x="48" y="96" xlink:href="#p" />
<use x="60" y="96" xlink:href="#p" />
<use x="72" y="96" xlink:href="#p" />
<use x="84" y="96" xlink:href="#p" />
<use x="96" y="96" xlink:href="#p" />
<use x="120" y="96" xlink:href="#p" />
<use x="144" y="96" xlink:href="#p" />
<use x="168" y="96" xlink:href="#p" />
<use x="192" y="96" xlink:href="#p" />
<use x="216" y="96" xlink:href="#p" />
<use x="240" y="96" xlink:href="#p" />
<use x="264" y="96" xlink:href="#p" />
<use x="288" y="96" xlink:href="#p" />
<use x="312" y="96" xlink:href="#p" />
<use x="336" y="96" xlink:href="#p" />
<use x="360" y="96" xlink:href="#p" />
<use x="384" y="96" xlink:href="#p" />
<use x="396" y="96" xlink:href="#p" />
<use x="408" y="96" xlink:href="#p" />
<use x="420" y="96" xlink:href="#p" />
<use x="432" y="96" xlink:href="#p" />
<use x="444" y="96" xlink:href="#p" />
<use x="456" y="96" xlink:href="#p" />
<use x="120" y="108" xlink:href="#p" />
<use x="144" y="108" xlink:href="#p" />
<use x="156" y="108" xlink:href="#p" />
<use x="168" y="108" xlink:href="#p" />
<use x="192" y="108" xlink:href="#p" />
<use x="204" y="108" xlink:href="#p" />
<use x="216" y="108" xlink:href="#p" />
<use x="228" y="108" xlink:href="#p" />
<use x="240" y="108" xlink:href="#p" />
<use x="276" y="108" xlink:href="#p" />
<use x="288" y="108" xlink:href="#p" />
<use x="300" y="108" xlink:href="#p" />
<use x="312" y="108" xlink:href="#p" />
<use x="72" y="120" xlink:href="#p" />
<use x="84" y="120" xlink:href="#p" />
<use x="96" y="120" xlink:href="#p" />
<use x="108" y="120" xlink:href="#p" />
<use x="144" y="120" xlink:href="#p" />
<use x="156" y="120" xlink:href="#p" />
<use x="168" y="120" xlink:href="#p" />
<use x="180" y="120" xlink:href="#p" />
<use x="216" y="120" xlink:href="#p" />
<use x="240" y="120" xlink:href="#p" />
<use x="252" y="120" xlink:href="#p" />
<use x="264" y="120" xlink:href="#p" />
<use x="276" y="120" xlink:href="#p" />
<use x="288" y="120" xlink:href="#p" />
<use x="300" y="120" xlink:href="#p" />
<use x="348" y="120" xlink:href="#p" />
<use x="360" y="120" xlink:href="#p" />
<use x="384" y="120" xlink:href="#p" />
<use x="396" y="120" xlink:href="#p" />
<use x="444" y="120" xlink:href="#p" />
<use x="24" y="132" xlink:href="#p" />
<use x="48" y="132" xlink:href="#p" />
<use x="60" y="132" xlink:href="#p" />
<use x="84" y="132" xlink:href="#p" />
<use x="120" y="132" xlink:href="#p" />
<use x="132" y="132" xlink:href="#p" />
<use x="144" y="132" xlink:href="#p" />
<use x="156" y="132" xlink:href="#p" />
<use x="168" y="132" xlink:href="#p" />
<use x="192" y="132" xlink:href="#p" />
<use x="216" y="132" xlink:href="#p" />
<use x="228" y="132" xlink:href="#p" />
<use x="240" y="132" xlink:href="#p" />
<use x="252" y="132" xlink:href="#p" />
<use x="300" y="132" xlink:href="#p" />
<use x="324" y="132" xlink:href="#p" />
<use x="336" y="132" xlink:href="#p" />
<use x="348" y="132" xlink:href="#p" />
<use x="372" y="132" xlink:href="#p" />
<use x="384" y="132" xlink:href="#p" />
<use x="408" y="132" xlink:href="#p" />
<use x="432" y="132" xlink:href="#p" />
<use x="60" y="144" xlink:href="#p" />
<use x="72" y="144" xlink:href="#p" />
<use x="84" y="144" xlink:href="#p" />
<use x="96" y="144" xlink:href="#p" />
<use x="108" y="144" xlink:href="#p" />
<use x="144" y="144" xlink:href="#p" />
<use x="156" y="144" xlink:href="#p" />
<use x="180" y="144" xlink:href="#p" />
<use x="192" y="144" xlink:href="#p" />
<use x="252" y="144" xlink:href="#p" />
<use x="276" y="144" xlink:href="#p" />
<use x="288" y="144" xlink:href="#p" />
<use x="300" y="144" xlink:href="#p" />
<use x="312" y="144" xlink:href="#p" />
<use x="324" y="144" xlink:href="#p" />
<use x="336" y="144" xlink:href="#p" />
<use x="348" y="144" xlink:href="#p" />
<use x="372" y="144" xlink:href="#p" />
<use x="420" y="144" xlink:href="#p" />
<use x="444" y="144" xlink:href="#p" />
<use x="24" y="156" xlink:href="#p" />
<use x="48" y="156" xlink:href="#p" />
<use x="132" y="156" xlink:href="#p" />
<use x="156" y="156" xlink:href="#p" />
<use x="180" y="156" xlink:href="#p" />
<use x="216" y="156" xlink:href="#p" />
<use x="252" y="156" xlink:href="#p" />
<use x="264" y="156" xlink:href="#p" />
<use x="300" y="156" xlink:href="#p" />
<use x="312" y="156" xlink:href="#p" />
<use x="336" y="156" xlink:href="#p" />
<use x="348" y="156" xlink:href="#p" />
<use x="360" y="156" xlink:href="#p" />
<use x="372" y="156" xlink:href="#p" />
<use x="396" y="156" xlink:href="#p" />
<use x="432" y="156" xlink:href="#p" />
<use x="444" y="156" xlink:href="#p" />
<use x="456" y="156" xlink:href="#p" />
<use x="24" y="168" xlink:href="#p" />
<use x="48" y="168" xlink:href="#p" />
<use x="60" y="168" xlink:href="#p" />
<use x="72" y="168" xlink:href="#p" />
<use x="84" y="168" xlink:href="#p" />
<use x="96" y="168" xlink:href="#p" />
<use x="120" y="168" xlink:href="#p" />
<use x="132" y="168" xlink:href="#p" />
<use x="144" y="168" xlink:href="#p" />
<use x="168" y="168" xlink:href="#p" />
<use x="204" y="168" xlink:href="#p" />
<use x="216" y="168" xlink:href="#p" />
<use x="252" y="168" xlink:href="#p" />
<use x="264" y="168" xlink:href="#p" />
<use x="312" y="168" xlink:href="#p" />
<use x="348" y="168" xlink:href="#p" />
<use x="384" y="168" xlink:href="#p" />
<use x="432" y="168" xlink:href="#p" />
<use x="456" y="168" xlink:href="#p" />
<use x="36" y="180" xlink:href="#p" />
<use x="60" y="180" xlink:href="#p" />
<use x="72" y="180" xlink:href="#p" />
<use x="84" y="180" xlink:href="#p" />
<use x="108" y="180" xlink:href="#p" />
<use x="120" y="180" xlink:href="#p" />
<use x="144" y="180" xlink:href="#p" />
<use x="168" y="180" xlink:href="#p" />
<use x="204" y="180" xlink:href="#p" />
<use x="228" y="180" xlink:href="#p" />
<use x="264" y="180" xlink:href="#p" />
<use x="276" y="180" xlink:href="#p" />
<use x="288" y="180" xlink:href="#p" />
<use x="300" y="180" xlink:href="#p" />
<use x="312" y="180" xlink:href="#p" />
<use x="336" y="180" xlink:href="#p" />
<use x="348" y="180" xlink:href="#p" />
<use x="360" y="180" xlink:href="#p" />
<use x="372" y="180" xlink:href="#p" />
<use x="396" y="180" xlink:href="#p" />
<use x="408" y="180" xlink:href="#p" />
<use x="432" y="180" xlink:href="#p" />
<use x="48" y="192" xlink:href="#p" />
<use x="72" y="192" xlink:href="#p" />
<use x="84" y="192" xlink:href="#p" />
<use x="96" y="192" xlink:href="#p" />
<use x="108" y="192" xlink:href="#p" />
<use x="120" y="192" xlink:href="#p" />
<use x="132" y="192" xlink:href="#p" />
<use x="216" y="192" xlink:href="#p" />
<use x="228" y="192" xlink:href="#p" />
<use x="240" y="192" xlink:href="#p" />
<use x="252" y="192" xlink:href="#p" />
<use x="264" y="192" xlink:href="#p" />
<use x="288" y="192" xlink:href="#p" />
<use x="324" y="192" xlink:href="#p" />
<use x="336" y="192" xlink:href="#p" />
<use x="348" y="192" xlink:href="#p" />
<use x="372" y="192" xlink:href="#p" />
<use x="420" y="192" xlink:href="#p" />
<use x="432" y="192" xlink:href="#p" />
<use x="24" y="204" xlink:href="#p" />
<use x="36" y="204" xlink:href="#p" />
<use x="60" y="204" xlink:href="#p" />
<use x="84" y="204" xlink:href="#p" />
<use x="108" y="204" xlink:href="#p" />
<use x="132" y="204" xlink:href="#p" />
<use x="168" y="204" xlink:href="#p" />
<use x="180" y="204" xlink:href="#p" />
<use x="192" y="204" xlink:href="#p" />
<use x="204" y="204" xlink:href="#p" />
<use x="264" y="204" xlink:href="#p" />
<use x="276" y="204" xlink:href="#p" />
<use x="336" y="204" xlink:href="#p" />
<use x="408" y="204" xlink:href="#p" />
<use x="432" y="204" xlink:href="#p" />
<use x="444" y="204" xlink:href="#p" />
<use x="36" y="216" xlink:href="#p" />
<use x="60" y="216" xlink:href="#p" />
<use x="72" y="216" xlink:href="#p" />
<use x="84" y="216" xlink:href="#p" />
<use x="96" y="216" xlink:href="#p" />
<use x="132" y="216" xlink:href="#p" />
<use x="168" y="216" xlink:href="#p" />
<use x="192" y="216" xlink:href="#p" />
<use x="216" y="216" xlink:href="#p" />
<use x="240" y="216" xlink:href="#p" />
<use x="276" y="216" xlink:href="#p" />
<use x="300" y="216" xlink:href="#p" />
<use x="312" y="216" xlink:href="#p" />
<use x="372" y="216" xlink:href="#p" />
<use x="384" y="216" xlink:href="#p" />
<use x="420" y="216" xlink:href="#p" />
<use x="432" y="216" xlink:href="#p" />
<use x="36" y="228" xlink:href="#p" />
<use x="60" y="228" xlink:href="#p" />
<use x="72" y="228" xlink:href="#p" />
<use x="120" y="228" xlink:href="#p" />
<use x="132" y="228" xlink:href="#p" />
<use x="144" y="228" xlink:href="#p" />
<use x="156" y="228" xlink:href="#p" />
<use x="168" y="228" xlink:href="#p" />
<use x="180" y="228" xlink:href="#p" />
<use x="192" y="228" xlink:href="#p" />
<use x="216" y="228" xlink:href="#p" />
<use x="240" y="228" xlink:href="#p" />
<use x="252" y="228" xlink:href="#p" />
<use x="264" y="228" xlink:href="#p" />
<use x="336" y="228" xlink:href="#p" />
<use x="348" y="228" xlink:href="#p" />
<use x="360" y="228" xlink:href="#p" />
<use x="372" y="228" xlink:href="#p" />
<use x="408" y="228" xlink:href="#p" />
<use x="432" y="228" xlink:href="#p" />
<use x="36" y="240" xlink:href="#p" />
<use x="60" y="240" xlink:href="#p" />
<use x="72" y="240" xlink:href="#p" />
<use x="84" y="240" xlink:href="#p" />
<use x="96" y="240" xlink:href="#p" />
<use x="108" y="240" xlink:href="#p" />
<use x="120" y="240" xlink:href="#p" />
<use x="144" y="240" xlink:href="#p" />
<use x="180" y="240" xlink:href="#p" />
<use x="192" y="240" xlink:href="#p" />
<use x="204" y="240" xlink:href="#p" />
<use x="240" y="240" xlink:href="#p" />
<use x="252" y="240" xlink:href="#p" />
<use x="264" y="240" xlink:href="#p" />
<use x="300" y="240" xlink:href="#p" />
<use x="312" y="240" xlink:href="#p" />
<use x="348" y="240" xlink:href="#p" />
<use x="360" y="240" xlink:href="#p" />
<use x="372" y="240" xlink:href="#p" />
<use x="408" y="240" xlink:href="#p" />
<use x="432" y="240" xlink:href="#p" />
<use x="24" y="252" xlink:href="#p" />
<use x="36" y="252" xlink:href="#p" />
<use x="48" y="252" xlink:href="#p" />
<use x="60" y="252" xlink:href="#p" />
<use x="120" y="252" xlink:href="#p" />
<use x="132" y="252" xlink:href="#p" />
<use x="156" y="252" xlink:href="#p" />
<use x="180" y="252" xlink:href="#p" />
<use x="192" y="252" xlink:href="#p" />
<use x="204" y="252" xlink:href="#p" />
<use x="228" y="252" xlink:href="#p" />
<use x="252" y="252" xlink:href="#p" />
<use x="288" y="252" xlink:href="#p" />
<use x="300" y="252" xlink:href="#p" />
<use x="312" y="252" xlink:href="#p" />
<use x="396" y="252" xlink:href="#p" />
<use x="408" y="252" xlink:href="#p" />
<use x="432" y="252" xlink:href="#p" />
<use x="456" y="252" xlink:href="#p" />
<use x="48" y="264" xlink:href="#p" />
<use x="60" y="264" xlink:href="#p" />
<use x="84" y="264" xlink:href="#p" />
<use x="96" y="264" xlink:href="#p" />
<use x="144" y="264" xlink:href="#p" />
<use x="168" y="264" xlink:href="#p" />
<use x="192" y="264" xlink:href="#p" />
<use x="228" y="264" xlink:href="#p" />
<use x="252" y="264" xlink:href="#p" />
<use x="264" y="264" xlink:href="#p" />
<use x="288" y="264" xlink:href="#p" />
<use x="300" y="264" xlink:href="#p" />
<use x="324" y="264" xlink:href="#p" />
<use x="348" y="264" xlink:href="#p" />
<use x="372" y="264" xlink:href="#p" />
<use x="384" y="264" xlink:href="#p" />
<use x="432" y="264" xlink:href="#p" />
<use x="24" y="276" xlink:href="#p" />
<use x="36" y="276" xlink:href="#p" />
<use x="48" y="276" xlink:href="#p" />
<use x="60" y="276" xlink:href="#p" />
<use x="108" y="276" xlink:href="#p" />
<use x="228" y="276" xlink:href="#p" />
<use x="276" y="276" xlink:href="#p" />
<use x="300" y="276" xlink:href="#p" />
<use x="324" y="276" xlink:href="#p" />
<use x="336" y="276" xlink:href="#p" />
<use x="348" y="276" xlink:href="#p" />
<use x="384" y="276" xlink:href="#p" />
<use x="408" y="276" xlink:href="#p" />
<use x="420" y="276" xlink:href="#p" />
<use x="432" y="276" xlink:href="#p" />
<use x="444" y="276" xlink:href="#p" />
<use x="36" y="288" xlink:href="#p" />
<use x="48" y="288" xlink:href="#p" />
<use x="72" y="288" xlink:href="#p" />
<use x="96" y="288" xlink:href="#p" />
<use x="120" y="288" xlink:href="#p" />
<use x="132" y="288" xlink:href="#p" />
<use x="144" y="288" xlink:href="#p" />
<use x="192" y="288" xlink:href="#p" />
<use x="252" y="288" xlink:href="#p" />
<use x="300" y="288" xlink:href="#p" />
<use x="324" y="288" xlink:href="#p" />
<use x="336" y="288" xlink:href="#p" />
<use x="348" y="288" xlink:href="#p" />
<use x="24" y="300" xlink:href="#p" />
<use x="36" y="300" xlink:href="#p" />
<use x="48" y="300" xlink:href="#p" />
<use x="60" y="300" xlink:href="#p" />
<use x="144" y="300" xlink:href="#p" />
<use x="156" y="300" xlink:href="#p" />
<use x="204" y="300" xlink:href="#p" />
<use x="228" y="300" xlink:href="#p" />
<use x="240" y="300" xlink:href="#p" />
<use x="288" y="300" xlink:href="#p" />
<use x="300" y="300" xlink:href="#p" />
<use x="336" y="300" xlink:href="#p" />
<use x="396" y="300" xlink:href="#p" />
<use x="432" y="300" xlink:href="#p" />
<use x="24" y="312" xlink:href="#p" />
<use x="60" y="312" xlink:href="#p" />
<use x="72" y="312" xlink:href="#p" />
<use x="96" y="312" xlink:href="#p" />
<use x="120" y="312" xlink:href="#p" />
<use x="144" y="312" xlink:href="#p" />
<use x="156" y="312" xlink:href="#p" />
<use x="180" y="312" xlink:href="#p" />
<use x="204" y="312" xlink:href="#p" />
<use x="216" y="312" xlink:href="#p" />
<use x="228" y="312" xlink:href="#p" />
<use x="252" y="312" xlink:href="#p" />
<use x="288" y="312" xlink:href="#p" />
<use x="300" y="312" xlink:href="#p" />
<use x="312" y="312" xlink:href="#p" />
<use x="348" y="312" xlink:href="#p" />
<use x="360" y="312" xlink:href="#p" />
<use x="384" y="312" xlink:href="#p" />
<use x="408" y="312" xlink:href="#p" />
<use x="24" y="324" xlink:href="#p" />
<use x="48" y="324" xlink:href="#p" />
<use x="72" y="324" xlink:href="#p" />
<use x="84" y="324" xlink:href="#p" />
<use x="120" y="324" xlink:href="#p" />
<use x="144" y="324" xlink:href="#p" />
<use x="192" y="324" xlink:href="#p" />
<use x="204" y="324" xlink:href="#p" />
<use x="228" y="324" xlink:href="#p" />
<use x="252" y="324" xlink:href="#p" />
<use x="264" y="324" xlink:href="#p" />
<use x="288" y="324" xlink:href="#p" />
<use x="324" y="324" xlink:href="#p" />
<use x="348" y="324" xlink:href="#p" />
<use x="372" y="324" xlink:href="#p" />
<use x="408" y="324" xlink:href="#p" />
<use x="420" y="324" xlink:href="#p" />
<use x="444" y="324" xlink:href="#p" />
<use x="48" y="336" xlink:href="#p" />
<use x="60" y="336" xlink:href="#p" />
<use x="72" y="336" xlink:href="#p" />
<use x="84" y="336" xlink:href="#p" />
<use x="96" y="336" xlink:href="#p" />
<use x="120" y="336" xlink:href="#p" />
<use x="180" y="336" xlink:href="#p" />
<use x="192" y="336" xlink:href="#p" />
<use x="216" y="336" xlink:href="#p" />
<use x="228" y="336" xlink:href="#p" />
<use x="252" y="336" xlink:href="#p" />
<use x="264" y="336" xlink:href="#p" />
<use x="276" y="336" xlink:href="#p" />
<use x="288" y="336" xlink:href="#p" />
<use x="336" y="336" xlink:href="#p" />
<use x="348" y="336" xlink:href="#p" />
<use x="372" y="336" xlink:href="#p" />
<use x="384" y="336" xlink:href="#p" />
<use x="408" y="336" xlink:href="#p" />
<use x="60" y="348" xlink:href="#p" />
<use x="120" y="348" xlink:href="#p" />
<use x="144" y="348" xlink:href="#p" />
<use x="168" y="348" xlink:href="#p" />
<use x="180" y="348" xlink:href="#p" />
<use x="192" y="348" xlink:href="#p" />
<use x="216" y="348" xlink:href="#p" />
<use x="228" y="348" xlink:href="#p" />
<use x="240" y="348" xlink:href="#p" />
<use x="288" y="348" xlink:href="#p" />
<use x="312" y="348" xlink:href="#p" />
<use x="336" y="348" xlink:href="#p" />
<use x="348" y="348" xlink:href="#p" />
<use x="372" y="348" xlink:href="#p" />
<use x="384" y="348" xlink:href="#p" />
<use x="432" y="348" xlink:href="#p" />
<use x="456" y="348" xlink:href="#p" />
<use x="24" y="360" xlink:href="#p" />
<use x="36" y="360" xlink:href="#p" />
<use x="72" y="360" xlink:href="#p" />
<use x="84" y="360" xlink:href="#p" />
<use x="96" y="360" xlink:href="#p" />
<use x="132" y="360" xlink:href="#p" />
<use x="156" y="360" xlink:href="#p" />
<use x="168" y="360" xlink:href="#p" />
<use x="216" y="360" xlink:href="#p" />
<use x="264" y="360" xlink:href="#p" />
<use x="288" y="360" xlink:href="#p" />
<use x="300" y="360" xlink:href="#p" />
<use x="360" y="360" xlink:href="#p" />
<use x="372" y="360" xlink:href="#p" />
<use x="384" y="360" xlink:href="#p" />
<use x="396" y="360" xlink:href="#p" />
<use x="408" y="360" xlink:href="#p" />
<use x="420" y="360" xlink:href="#p" />
<use x="432" y="360" xlink:href="#p" />
<use x="444" y="360" xlink:href="#p" />
<use x="120" y="372" xlink:href="#p" />
<use x="180" y="372" xlink:href="#p" />
<use x="204" y="372" xlink:href="#p" />
<use x="240" y="372" xlink:href="#p" />
<use x="288" y="372" xlink:href="#p" />
<use x="300" y="372" xlink:href="#p" />
<use x="336" y="372" xlink:href="#p" />
<use x="348" y="372" xlink:href="#p" />
<use x="360" y="372" xlink:href="#p" />
<use x="408" y="372" xlink:href="#p" />
<use x="420" y="372" xlink:href="#p" />
<use x="444" y="372" xlink:href="#p" />
<use x="24" y="384" xlink:href="#p" />
<use x="36" y="384" xlink:href="#p" />
<use x="48" y="384" xlink:href="#p" />
<use x="60" y="384" xlink:href="#p" />
<use x="72" y="384" xlink:href="#p" />
<use x="84" y="384" xlink:href="#p" />
<use x="96" y="384" xlink:href="#p" />
<use x="120" y="384" xlink:href="#p" />
<use x="132" y="384" xlink:href="#p" />
<use x="144" y="384" xlink:href="#p" />
<use x="156" y="384" xlink:href="#p" />
<use x="168" y="384" xlink:href="#p" />
<use x="180" y="384" xlink:href="#p" />
<use x="192" y="384" xlink:href="#p" />
<use x="216" y="384" xlink:href="#p" />
<use x="252" y="384" xlink:href="#p" />
<use x="264" y="384" xlink:href="#p" />
<use x="276" y="384" xlink:href="#p" />
<use x="300" y="384" xlink:href="#p" />
<use x="336" y="384" xlink:href="#p" />
<use x="348" y="384" xlink:href="#p" />
<use x="360" y="384" xlink:href="#p" />
<use x="384" y="384" xlink:href="#p" />
<use x="408" y="384" xlink:href="#p" />
<use x="420" y="384" xlink:href="#p" />
<use x="432" y="384" xlink:href="#p" />
<use x="24" y="396" xlink:href="#p" />
<use x="96" y="396" xlink:href="#p" />
<use x="120" y="396" xlink:href="#p" />
<use x="156" y="396" xlink:href="#p" />
<use x="168" y="396" xlink:href="#p" />
<use x="204" y="396" xlink:href="#p" />
<use x="216" y="396" xlink:href="#p" />
<use x="228" y="396" xlink:href="#p" />
<use x="240" y="396" xlink:href="#p" />
<use x="276" y="396" xlink:href="#p" />
<use x="288" y="396" xlink:href="#p" />
<use x="312" y="396" xlink:href="#p" />
<use x="336" y="396" xlink:href="#p" />
<use x="360" y="396" xlink:href="#p" />
<use x="408" y="396" xlink:href="#p" />
<use x="432" y="396" xlink:href="#p" />
<use x="24" y="408" xlink:href="#p" />
<use x="48" y="408" xlink:href="#p" />
<use x="60" y="408" xlink:href="#p" />
<use x="72" y="408" xlink:href="#p" />
<use x="96" y="408" xlink:href="#p" />
<use x="120" y="408" xlink:href="#p" />
<use x="132" y="408" xlink:href="#p" />
<use x="144" y="408" xlink:href="#p" />
<use x="168" y="408" xlink:href="#p" />
<use x="192" y="408" xlink:href="#p" />
<use x="240" y="408" xlink:href="#p" />
<use x="264" y="408" xlink:href="#p" />
<use x="288" y="408" xlink:href="#p" />
<use x="300" y="408" xlink:href="#p" />
<use x="312" y="408" xlink:href="#p" />
<use x="336" y="408" xlink:href="#p" />
<use x="360" y="408" xlink:href="#p" />
<use x="372" y="408" xlink:href="#p" />
<use x="384" y="408" xlink:href="#p" />
<use x="396" y="408" xlink:href="#p" />
<use x="408" y="408" xlink:href="#p" />
<use x="420" y="408" xlink:href="#p" />
<use x="432" y="408" xlink:href="#p" />
<use x="24" y="420" xlink:href="#p" />
<use x="48" y="420" xlink:href="#p" />
<use x="60" y="420" xlink:href="#p" />
<use x="72" y="420" xlink:href="#p" />
<use x="96" y="420" xlink:href="#p" />
<use x="132" y="420" xlink:href="#p" />
<use x="156" y="420" xlink:href="#p" />
<use x="192" y="420" xlink:href="#p" />
<use x="204" y="420" xlink:href="#p" />
<use x="240" y="420" xlink:href="#p" />
<use x="252" y="420" xlink:href="#p" />
<use x="312" y="420" xlink:href="#p" />
<use x="324" y="420" xlink:href="#p" />
<use x="336" y="420" xlink:href="#p" />
<use x="348" y="420" xlink:href="#p" />
<use x="360" y="420" xlink:href="#p" />
<use x="384" y="420" xlink:href="#p" />
<use x="420" y="420" xlink:href="#p" />
<use x="432" y="420" xlink:href="#p" />
<use x="24" y="432" xlink:href="#p" />
<use x="48" y="432" xlink:href="#p" />
<use x="60" y="432" xlink:href="#p" />
<use x="72" y="432" xlink:href="#p" />
<use x="96" y="432" xlink:href="#p" />
<use x="132" y="432" xlink:href="#p" />
<use x="156" y="432" xlink:href="#p" />
<use x="180" y="432" xlink:href="#p" />
<use x="204" y="432" xlink:href="#p" />
<use x="228" y="432" xlink:href="#p" />
<use x="240" y="432" xlink:href="#p" />
<use x="252" y="432" xlink:href="#p" />
<use x="276" y="432" xlink:href="#p" />
<use x="288" y="432" xlink:href="#p" />
<use x="300" y="432" xlink:href="#p" />
<use x="336" y="432" xlink:href="#p" />
<use x="348" y="432" xlink:href="#p" />
<use x="360" y="432" xlink:href="#p" />
<use x="372" y="432" xlink:href="#p" />
<use x="384" y="432" xlink:href="#p" />
<use x="396" y="432" xlink:href="#p" />
<use x="420" y="432" xlink:href="#p" />
<use x="444" y="432" xlink:href="#p" />
<use x="24" y="444" xlink:href="#p" />
<use x="96" y="444" xlink:href="#p" />
<use x="132" y="444" xlink:href="#p" />
<use x="156" y="444" xlink:href="#p" />
<use x="180" y="444" xlink:href="#p" />
<use x="192" y="444" xlink:href="#p" />
<use x="240" y="444" xlink:href="#p" />
<use x="252" y="444" xlink:href="#p" />
<use x="264" y="444" xlink:href="#p" />
<use x="288" y="444" xlink:href="#p" />
<use x="300" y="444" xlink:href="#p" />
<use x="336" y="444" xlink:href="#p" />
<use x="348" y="444" xlink:href="#p" />
<use x="372" y="444" xlink:href="#p" />
<use x="396" y="444" xlink:href="#p" />
<use x="408" y="444" xlink:href="#p" />
<use x="420" y="444" xlink:href="#p" />
<use x="432" y="444" xlink:href="#p" />
<use x="444" y="444" xlink:href="#p" />
<use x="24" y="456" xlink:href="#p" />
<use x="36" y="456" xlink:href="#p" />
<use x="48" y="456" xlink:href="#p" />
<use x="60" y="456" xlink:href="#p" />
<use x="72" y="456" xlink:href="#p" />
<use x="84" y="456" xlink:href="#p" />
<use x="96" y="456" xlink:href="#p" />
<use x="132" y="456" xlink:href="#p" />
<use x="156" y="456" xlink:href="#p" />
<use x="168" y="456" xlink:href="#p" />
<use x="180" y="456" xlink:href="#p" />
<use x="192" y="456" xlink:href="#p" />
<use x="204" y="456" xlink:href="#p" />
<use x="216" y="456" xlink:href="#p" />
<use x="228" y="456" xlink:href="#p" />
<use x="252" y="456" xlink:href="#p" />
<use x="264" y="456" xlink:href="#p" />
<use x="312" y="456" xlink:href="#p" />
<use x="372" y="456" xlink:href="#p" />
<use x="384" y="456" xlink:href="#p" />
<use x="432" y="456" xlink:href="#p" />
<use x="444" y="456" xlink:href="#p" />
<use x="456" y="456" xlink:href="#p" />
</g>
</svg>